%TF.GenerationSoftware,KiCad,Pcbnew,(6.0.10)*%
%TF.CreationDate,2023-02-16T14:22:03-08:00*%
%TF.ProjectId,Exercise 2,45786572-6369-4736-9520-322e6b696361,rev?*%
%TF.SameCoordinates,Original*%
%TF.FileFunction,Copper,L1,Top*%
%TF.FilePolarity,Positive*%
%FSLAX46Y46*%
G04 Gerber Fmt 4.6, Leading zero omitted, Abs format (unit mm)*
G04 Created by KiCad (PCBNEW (6.0.10)) date 2023-02-16 14:22:03*
%MOMM*%
%LPD*%
G01*
G04 APERTURE LIST*
G04 Aperture macros list*
%AMRoundRect*
0 Rectangle with rounded corners*
0 $1 Rounding radius*
0 $2 $3 $4 $5 $6 $7 $8 $9 X,Y pos of 4 corners*
0 Add a 4 corners polygon primitive as box body*
4,1,4,$2,$3,$4,$5,$6,$7,$8,$9,$2,$3,0*
0 Add four circle primitives for the rounded corners*
1,1,$1+$1,$2,$3*
1,1,$1+$1,$4,$5*
1,1,$1+$1,$6,$7*
1,1,$1+$1,$8,$9*
0 Add four rect primitives between the rounded corners*
20,1,$1+$1,$2,$3,$4,$5,0*
20,1,$1+$1,$4,$5,$6,$7,0*
20,1,$1+$1,$6,$7,$8,$9,0*
20,1,$1+$1,$8,$9,$2,$3,0*%
G04 Aperture macros list end*
%TA.AperFunction,SMDPad,CuDef*%
%ADD10RoundRect,0.250001X0.624999X-0.462499X0.624999X0.462499X-0.624999X0.462499X-0.624999X-0.462499X0*%
%TD*%
%TA.AperFunction,SMDPad,CuDef*%
%ADD11RoundRect,0.250000X-0.450000X0.350000X-0.450000X-0.350000X0.450000X-0.350000X0.450000X0.350000X0*%
%TD*%
%TA.AperFunction,SMDPad,CuDef*%
%ADD12RoundRect,0.250001X-0.624999X0.462499X-0.624999X-0.462499X0.624999X-0.462499X0.624999X0.462499X0*%
%TD*%
%TA.AperFunction,SMDPad,CuDef*%
%ADD13RoundRect,0.250000X0.475000X-0.337500X0.475000X0.337500X-0.475000X0.337500X-0.475000X-0.337500X0*%
%TD*%
%TA.AperFunction,SMDPad,CuDef*%
%ADD14RoundRect,0.150000X0.150000X-0.825000X0.150000X0.825000X-0.150000X0.825000X-0.150000X-0.825000X0*%
%TD*%
%TA.AperFunction,SMDPad,CuDef*%
%ADD15RoundRect,0.250000X0.450000X-0.350000X0.450000X0.350000X-0.450000X0.350000X-0.450000X-0.350000X0*%
%TD*%
%TA.AperFunction,SMDPad,CuDef*%
%ADD16RoundRect,0.250000X0.425000X-0.537500X0.425000X0.537500X-0.425000X0.537500X-0.425000X-0.537500X0*%
%TD*%
%TA.AperFunction,ComponentPad*%
%ADD17R,3.000000X3.000000*%
%TD*%
%TA.AperFunction,ComponentPad*%
%ADD18C,3.000000*%
%TD*%
%TA.AperFunction,ViaPad*%
%ADD19C,0.800000*%
%TD*%
%TA.AperFunction,Conductor*%
%ADD20C,0.250000*%
%TD*%
%TA.AperFunction,Conductor*%
%ADD21C,0.500000*%
%TD*%
G04 APERTURE END LIST*
D10*
%TO.P,D1,1,K*%
%TO.N,Net-(D1-Pad1)*%
X190507363Y-85535093D03*
%TO.P,D1,2,A*%
%TO.N,+9V*%
X190507363Y-82560093D03*
%TD*%
D11*
%TO.P,R3,1*%
%TO.N,Net-(D1-Pad1)*%
X201263703Y-82344649D03*
%TO.P,R3,2*%
%TO.N,/pin_3*%
X201263703Y-84344649D03*
%TD*%
D12*
%TO.P,D2,1,K*%
%TO.N,GND*%
X190479835Y-74934655D03*
%TO.P,D2,2,A*%
%TO.N,Net-(D2-Pad2)*%
X190479835Y-77909655D03*
%TD*%
D13*
%TO.P,C2,1*%
%TO.N,Net-(C2-Pad1)*%
X198042851Y-76866826D03*
%TO.P,C2,2*%
%TO.N,GND*%
X198042851Y-74791826D03*
%TD*%
D14*
%TO.P,U1,1,GND*%
%TO.N,GND*%
X201588524Y-78414441D03*
%TO.P,U1,2,TR*%
%TO.N,/pin_2*%
X202858524Y-78414441D03*
%TO.P,U1,3,Q*%
%TO.N,/pin_3*%
X204128524Y-78414441D03*
%TO.P,U1,4,R*%
%TO.N,/9V*%
X205398524Y-78414441D03*
%TO.P,U1,5,CV*%
%TO.N,Net-(C2-Pad1)*%
X205398524Y-73464441D03*
%TO.P,U1,6,THR*%
%TO.N,/pin_2*%
X204128524Y-73464441D03*
%TO.P,U1,7,DIS*%
%TO.N,Net-(R1-Pad2)*%
X202858524Y-73464441D03*
%TO.P,U1,8,VCC*%
%TO.N,+9V*%
X201588524Y-73464441D03*
%TD*%
D15*
%TO.P,R4,1*%
%TO.N,/pin_3*%
X204732314Y-84427235D03*
%TO.P,R4,2*%
%TO.N,Net-(D2-Pad2)*%
X204732314Y-82427235D03*
%TD*%
D11*
%TO.P,R1,1*%
%TO.N,+9V*%
X194216368Y-82427235D03*
%TO.P,R1,2*%
%TO.N,Net-(R1-Pad2)*%
X194216368Y-84427235D03*
%TD*%
D15*
%TO.P,R2,1*%
%TO.N,Net-(R1-Pad2)*%
X197740036Y-84372177D03*
%TO.P,R2,2*%
%TO.N,/pin_2*%
X197740036Y-82372177D03*
%TD*%
D16*
%TO.P,C1,1*%
%TO.N,/pin_2*%
X194278790Y-77872547D03*
%TO.P,C1,2*%
%TO.N,GND*%
X194278790Y-74997547D03*
%TD*%
D17*
%TO.P,J1,1,Pin_1*%
%TO.N,+9V*%
X183397607Y-82726217D03*
D18*
%TO.P,J1,2,Pin_2*%
%TO.N,GND*%
X183397607Y-77646217D03*
%TD*%
D19*
%TO.N,Net-(C2-Pad1)*%
X199501330Y-78403381D03*
X205484683Y-75680797D03*
%TO.N,Net-(D2-Pad2)*%
X203266848Y-80660230D03*
X190470555Y-80093605D03*
%TO.N,Net-(R1-Pad2)*%
X202160598Y-75490849D03*
X195955640Y-84639998D03*
%TD*%
D20*
%TO.N,/pin_2*%
X197740036Y-82372177D02*
X197740036Y-81659964D01*
X202858524Y-79081476D02*
X202858524Y-78414441D01*
X198120000Y-81280000D02*
X200660000Y-81280000D01*
X204128524Y-73464441D02*
X204128524Y-76610914D01*
X197740036Y-82372177D02*
X194278790Y-78910931D01*
X200660000Y-81280000D02*
X202858524Y-79081476D01*
X197740036Y-81659964D02*
X198120000Y-81280000D01*
X204128524Y-76610914D02*
X203199999Y-77539439D01*
X194278790Y-78910931D02*
X194278790Y-77872547D01*
%TO.N,GND*%
X197837130Y-74997547D02*
X198042851Y-74791826D01*
X190479835Y-74934655D02*
X190542727Y-74997547D01*
X201588524Y-78337499D02*
X201588524Y-78414441D01*
%TO.N,Net-(C2-Pad1)*%
X205484683Y-75680797D02*
X205484683Y-73550600D01*
X199501330Y-78403381D02*
X199501330Y-78325305D01*
X199501330Y-78325305D02*
X198042851Y-76866826D01*
X205484683Y-73550600D02*
X205398524Y-73464441D01*
%TO.N,Net-(D1-Pad1)*%
X198190293Y-85535093D02*
X190507363Y-85535093D01*
X201263703Y-82461683D02*
X198190293Y-85535093D01*
X201263703Y-82344649D02*
X201263703Y-82461683D01*
%TO.N,+9V*%
X190640221Y-82427235D02*
X190507363Y-82560093D01*
D21*
X180340000Y-76200000D02*
X180340000Y-79668610D01*
D20*
X190507363Y-82560093D02*
X190341239Y-82726217D01*
D21*
X194216368Y-82427235D02*
X190640221Y-82427235D01*
X201588524Y-73464441D02*
X183075559Y-73464441D01*
X190341239Y-82726217D02*
X183397607Y-82726217D01*
X183075559Y-73464441D02*
X180340000Y-76200000D01*
X180340000Y-79668610D02*
X183397607Y-82726217D01*
D20*
%TO.N,Net-(D2-Pad2)*%
X204732314Y-82125696D02*
X203266848Y-80660230D01*
X190470555Y-80093605D02*
X190470555Y-77918935D01*
X204732314Y-82427235D02*
X204732314Y-82125696D01*
X190470555Y-77918935D02*
X190479835Y-77909655D01*
%TO.N,Net-(R1-Pad2)*%
X197472215Y-84639998D02*
X197740036Y-84372177D01*
X202858524Y-74792923D02*
X202858524Y-73464441D01*
X202160598Y-75490849D02*
X202858524Y-74792923D01*
X194429131Y-84639998D02*
X194216368Y-84427235D01*
X195955640Y-84639998D02*
X197472215Y-84639998D01*
X195955640Y-84639998D02*
X194429131Y-84639998D01*
%TO.N,/pin_3*%
X201346289Y-84427235D02*
X204732314Y-84427235D01*
X201263703Y-84344649D02*
X201346289Y-84427235D01*
X204128524Y-78414441D02*
X204128524Y-79668524D01*
X205757314Y-81297314D02*
X205757314Y-83402235D01*
X204128524Y-79668524D02*
X205757314Y-81297314D01*
X205757314Y-83402235D02*
X204732314Y-84427235D01*
%TD*%
%TA.AperFunction,Conductor*%
%TO.N,GND*%
G36*
X189045760Y-74242943D02*
G01*
X189092253Y-74296599D01*
X189102983Y-74361782D01*
X189097163Y-74418591D01*
X189096835Y-74425011D01*
X189096835Y-74662540D01*
X189101310Y-74677779D01*
X189102700Y-74678984D01*
X189110383Y-74680655D01*
X191844720Y-74680655D01*
X191859959Y-74676180D01*
X191861164Y-74674790D01*
X191862835Y-74667107D01*
X191862835Y-74425059D01*
X191862498Y-74418544D01*
X191856625Y-74361946D01*
X191869489Y-74292124D01*
X191918060Y-74240342D01*
X191981952Y-74222941D01*
X192975354Y-74222941D01*
X193043475Y-74242943D01*
X193089968Y-74296599D01*
X193100698Y-74361784D01*
X193096118Y-74406487D01*
X193095790Y-74412902D01*
X193095790Y-74725432D01*
X193100265Y-74740671D01*
X193101655Y-74741876D01*
X193109338Y-74743547D01*
X195443674Y-74743547D01*
X195458913Y-74739072D01*
X195460118Y-74737682D01*
X195461789Y-74729999D01*
X195461789Y-74412952D01*
X195461451Y-74406431D01*
X195456836Y-74361943D01*
X195469701Y-74292122D01*
X195518273Y-74240341D01*
X195582163Y-74222941D01*
X196688829Y-74222941D01*
X196756950Y-74242943D01*
X196803443Y-74296599D01*
X196814173Y-74361784D01*
X196810179Y-74400766D01*
X196809851Y-74407181D01*
X196809851Y-74519711D01*
X196814326Y-74534950D01*
X196815716Y-74536155D01*
X196823399Y-74537826D01*
X199257735Y-74537826D01*
X199272974Y-74533351D01*
X199274179Y-74531961D01*
X199275850Y-74524278D01*
X199275850Y-74407231D01*
X199275513Y-74400714D01*
X199271490Y-74361945D01*
X199284355Y-74292124D01*
X199332925Y-74240341D01*
X199396817Y-74222941D01*
X200654024Y-74222941D01*
X200722145Y-74242943D01*
X200768638Y-74296599D01*
X200780024Y-74348941D01*
X200780024Y-74355943D01*
X200780217Y-74358391D01*
X200780217Y-74358399D01*
X200780484Y-74361784D01*
X200782962Y-74393272D01*
X200788665Y-74412902D01*
X200819696Y-74519711D01*
X200829379Y-74553042D01*
X200833416Y-74559868D01*
X200910033Y-74689421D01*
X200910035Y-74689424D01*
X200914071Y-74696248D01*
X201031717Y-74813894D01*
X201038541Y-74817930D01*
X201038544Y-74817932D01*
X201131580Y-74872953D01*
X201174923Y-74898586D01*
X201259169Y-74923061D01*
X201319004Y-74961273D01*
X201348682Y-75025769D01*
X201338779Y-75096072D01*
X201333141Y-75107048D01*
X201326071Y-75119293D01*
X201267056Y-75300921D01*
X201266366Y-75307482D01*
X201266366Y-75307484D01*
X201265521Y-75315526D01*
X201247094Y-75490849D01*
X201247784Y-75497414D01*
X201263514Y-75647073D01*
X201267056Y-75680777D01*
X201326071Y-75862405D01*
X201329374Y-75868127D01*
X201329375Y-75868128D01*
X201333530Y-75875325D01*
X201421558Y-76027793D01*
X201425976Y-76032700D01*
X201425977Y-76032701D01*
X201535932Y-76154818D01*
X201549345Y-76169715D01*
X201703846Y-76281967D01*
X201709874Y-76284651D01*
X201709876Y-76284652D01*
X201872279Y-76356958D01*
X201878310Y-76359643D01*
X201948042Y-76374465D01*
X202058654Y-76397977D01*
X202058659Y-76397977D01*
X202065111Y-76399349D01*
X202256085Y-76399349D01*
X202262537Y-76397977D01*
X202262542Y-76397977D01*
X202373154Y-76374465D01*
X202442886Y-76359643D01*
X202448917Y-76356958D01*
X202611320Y-76284652D01*
X202611322Y-76284651D01*
X202617350Y-76281967D01*
X202771851Y-76169715D01*
X202785264Y-76154818D01*
X202895219Y-76032701D01*
X202895220Y-76032700D01*
X202899638Y-76027793D01*
X202987666Y-75875325D01*
X202991821Y-75868128D01*
X202991822Y-75868127D01*
X202995125Y-75862405D01*
X203054140Y-75680777D01*
X203057683Y-75647073D01*
X203064507Y-75582142D01*
X203071505Y-75515555D01*
X203098518Y-75449899D01*
X203107720Y-75439631D01*
X203250771Y-75296580D01*
X203259061Y-75289036D01*
X203265542Y-75284923D01*
X203271544Y-75278532D01*
X203277173Y-75272537D01*
X203338386Y-75236571D01*
X203409326Y-75239408D01*
X203467470Y-75280148D01*
X203494359Y-75345856D01*
X203495024Y-75358789D01*
X203495024Y-76296319D01*
X203475022Y-76364440D01*
X203458119Y-76385415D01*
X202949496Y-76894037D01*
X202887184Y-76928062D01*
X202860401Y-76930941D01*
X202642022Y-76930941D01*
X202639574Y-76931134D01*
X202639566Y-76931134D01*
X202611103Y-76933374D01*
X202611098Y-76933375D01*
X202604693Y-76933879D01*
X202540382Y-76952563D01*
X202452536Y-76978084D01*
X202452534Y-76978085D01*
X202444923Y-76980296D01*
X202301717Y-77064988D01*
X202298777Y-77067928D01*
X202234253Y-77093262D01*
X202164630Y-77079361D01*
X202145884Y-77067312D01*
X202138201Y-77061352D01*
X202008745Y-76984793D01*
X201994314Y-76978548D01*
X201859919Y-76939502D01*
X201845818Y-76939542D01*
X201842524Y-76946811D01*
X201842524Y-78542441D01*
X201822522Y-78610562D01*
X201768866Y-78657055D01*
X201716524Y-78668441D01*
X200798640Y-78668441D01*
X200783401Y-78672916D01*
X200782196Y-78674306D01*
X200780525Y-78681989D01*
X200780525Y-79303425D01*
X200780719Y-79308361D01*
X200782954Y-79336777D01*
X200785254Y-79349372D01*
X200827631Y-79495231D01*
X200833876Y-79509662D01*
X200910435Y-79639119D01*
X200920075Y-79651545D01*
X201026420Y-79757890D01*
X201038844Y-79767528D01*
X201048404Y-79773181D01*
X201096858Y-79825073D01*
X201109566Y-79894923D01*
X201082492Y-79960555D01*
X201073363Y-79970732D01*
X200434500Y-80609595D01*
X200372188Y-80643621D01*
X200345405Y-80646500D01*
X198198767Y-80646500D01*
X198187584Y-80645973D01*
X198180091Y-80644298D01*
X198172165Y-80644547D01*
X198172164Y-80644547D01*
X198112014Y-80646438D01*
X198108055Y-80646500D01*
X198080144Y-80646500D01*
X198076210Y-80646997D01*
X198076209Y-80646997D01*
X198076144Y-80647005D01*
X198064307Y-80647938D01*
X198032490Y-80648938D01*
X198028029Y-80649078D01*
X198020110Y-80649327D01*
X198010138Y-80652224D01*
X198000658Y-80654978D01*
X197981306Y-80658986D01*
X197974235Y-80659880D01*
X197961203Y-80661526D01*
X197953834Y-80664443D01*
X197953832Y-80664444D01*
X197920097Y-80677800D01*
X197908869Y-80681645D01*
X197866407Y-80693982D01*
X197859585Y-80698016D01*
X197859579Y-80698019D01*
X197848968Y-80704294D01*
X197831218Y-80712990D01*
X197819756Y-80717528D01*
X197819751Y-80717531D01*
X197812383Y-80720448D01*
X197794970Y-80733099D01*
X197776625Y-80746427D01*
X197766707Y-80752943D01*
X197751097Y-80762175D01*
X197728637Y-80775458D01*
X197714313Y-80789782D01*
X197699281Y-80802621D01*
X197682893Y-80814528D01*
X197668422Y-80832021D01*
X197654712Y-80848593D01*
X197646722Y-80857373D01*
X197473024Y-81031071D01*
X197410712Y-81065097D01*
X197339897Y-81060032D01*
X197294834Y-81031071D01*
X195312904Y-79049141D01*
X195278878Y-78986829D01*
X195283943Y-78916014D01*
X195301344Y-78885104D01*
X195303095Y-78883350D01*
X195311692Y-78869404D01*
X195392065Y-78739015D01*
X195392066Y-78739013D01*
X195395905Y-78732785D01*
X195451587Y-78564908D01*
X195462290Y-78460447D01*
X195462290Y-77284647D01*
X195459523Y-77257976D01*
X195459186Y-77254726D01*
X196809351Y-77254726D01*
X196809688Y-77257972D01*
X196809688Y-77257976D01*
X196817520Y-77333453D01*
X196820325Y-77360492D01*
X196822506Y-77367028D01*
X196822506Y-77367030D01*
X196833513Y-77400021D01*
X196876301Y-77528272D01*
X196969373Y-77678674D01*
X197094548Y-77803631D01*
X197100778Y-77807471D01*
X197100779Y-77807472D01*
X197196438Y-77866437D01*
X197245113Y-77896441D01*
X197324856Y-77922890D01*
X197406462Y-77949958D01*
X197406464Y-77949958D01*
X197412990Y-77952123D01*
X197419826Y-77952823D01*
X197419829Y-77952824D01*
X197458579Y-77956794D01*
X197517451Y-77962826D01*
X198190756Y-77962826D01*
X198258877Y-77982828D01*
X198279852Y-77999731D01*
X198554429Y-78274309D01*
X198588454Y-78336621D01*
X198590643Y-78376572D01*
X198588516Y-78396813D01*
X198587826Y-78403381D01*
X198588516Y-78409946D01*
X198602442Y-78542441D01*
X198607788Y-78593309D01*
X198666803Y-78774937D01*
X198762290Y-78940325D01*
X198766708Y-78945232D01*
X198766709Y-78945233D01*
X198860268Y-79049141D01*
X198890077Y-79082247D01*
X198942938Y-79120653D01*
X199039066Y-79190494D01*
X199044578Y-79194499D01*
X199050606Y-79197183D01*
X199050608Y-79197184D01*
X199201215Y-79264238D01*
X199219042Y-79272175D01*
X199312443Y-79292028D01*
X199399386Y-79310509D01*
X199399391Y-79310509D01*
X199405843Y-79311881D01*
X199596817Y-79311881D01*
X199603269Y-79310509D01*
X199603274Y-79310509D01*
X199690217Y-79292028D01*
X199783618Y-79272175D01*
X199801445Y-79264238D01*
X199952052Y-79197184D01*
X199952054Y-79197183D01*
X199958082Y-79194499D01*
X199963595Y-79190494D01*
X200059722Y-79120653D01*
X200112583Y-79082247D01*
X200142392Y-79049141D01*
X200235951Y-78945233D01*
X200235952Y-78945232D01*
X200240370Y-78940325D01*
X200335857Y-78774937D01*
X200394872Y-78593309D01*
X200400219Y-78542441D01*
X200414144Y-78409946D01*
X200414834Y-78403381D01*
X200396818Y-78231967D01*
X200395562Y-78220016D01*
X200395562Y-78220014D01*
X200394872Y-78213453D01*
X200371761Y-78142326D01*
X200780524Y-78142326D01*
X200784999Y-78157565D01*
X200786389Y-78158770D01*
X200794072Y-78160441D01*
X201316409Y-78160441D01*
X201331648Y-78155966D01*
X201332853Y-78154576D01*
X201334524Y-78146893D01*
X201334524Y-76952563D01*
X201330551Y-76939032D01*
X201322653Y-76937897D01*
X201182734Y-76978548D01*
X201168303Y-76984793D01*
X201038846Y-77061352D01*
X201026420Y-77070992D01*
X200920075Y-77177337D01*
X200910435Y-77189763D01*
X200833876Y-77319220D01*
X200827631Y-77333651D01*
X200785255Y-77479506D01*
X200782954Y-77492108D01*
X200780717Y-77520525D01*
X200780524Y-77525455D01*
X200780524Y-78142326D01*
X200371761Y-78142326D01*
X200335857Y-78031825D01*
X200317328Y-77999731D01*
X200243671Y-77872155D01*
X200240370Y-77866437D01*
X200112583Y-77724515D01*
X199981698Y-77629421D01*
X199963424Y-77616144D01*
X199963423Y-77616143D01*
X199958082Y-77612263D01*
X199952054Y-77609579D01*
X199952052Y-77609578D01*
X199789649Y-77537272D01*
X199789648Y-77537272D01*
X199783618Y-77534587D01*
X199596817Y-77494881D01*
X199597377Y-77492245D01*
X199542784Y-77469788D01*
X199532510Y-77460581D01*
X199313256Y-77241327D01*
X199279230Y-77179015D01*
X199276351Y-77152232D01*
X199276351Y-76478926D01*
X199275221Y-76468034D01*
X199266089Y-76380018D01*
X199266088Y-76380014D01*
X199265377Y-76373160D01*
X199260868Y-76359643D01*
X199211719Y-76212328D01*
X199209401Y-76205380D01*
X199116329Y-76054978D01*
X198991154Y-75930021D01*
X198986616Y-75927224D01*
X198946027Y-75869973D01*
X198942797Y-75799050D01*
X198978423Y-75737639D01*
X198986919Y-75730264D01*
X198997058Y-75722228D01*
X199111590Y-75607497D01*
X199120602Y-75596086D01*
X199205667Y-75458083D01*
X199211814Y-75444902D01*
X199262989Y-75290616D01*
X199265856Y-75277240D01*
X199275523Y-75182888D01*
X199275851Y-75176472D01*
X199275851Y-75063941D01*
X199271376Y-75048702D01*
X199269986Y-75047497D01*
X199262303Y-75045826D01*
X196827967Y-75045826D01*
X196812728Y-75050301D01*
X196811523Y-75051691D01*
X196809852Y-75059374D01*
X196809852Y-75176421D01*
X196810189Y-75182940D01*
X196820108Y-75278532D01*
X196823000Y-75291926D01*
X196874439Y-75446110D01*
X196880612Y-75459288D01*
X196965914Y-75597133D01*
X196974950Y-75608534D01*
X197089679Y-75723064D01*
X197098613Y-75730120D01*
X197139674Y-75788038D01*
X197142904Y-75858961D01*
X197107277Y-75920372D01*
X197099444Y-75927172D01*
X197093503Y-75930848D01*
X196968546Y-76056023D01*
X196964706Y-76062253D01*
X196964705Y-76062254D01*
X196907648Y-76154818D01*
X196875736Y-76206588D01*
X196853068Y-76274931D01*
X196823676Y-76363546D01*
X196820054Y-76374465D01*
X196809351Y-76478926D01*
X196809351Y-77254726D01*
X195459186Y-77254726D01*
X195452028Y-77185739D01*
X195452027Y-77185735D01*
X195451316Y-77178881D01*
X195428056Y-77109161D01*
X195397658Y-77018049D01*
X195395340Y-77011101D01*
X195302268Y-76860699D01*
X195177093Y-76735742D01*
X195170862Y-76731901D01*
X195032758Y-76646772D01*
X195032756Y-76646771D01*
X195026528Y-76642932D01*
X194866044Y-76589702D01*
X194865179Y-76589415D01*
X194865177Y-76589415D01*
X194858651Y-76587250D01*
X194851815Y-76586550D01*
X194851812Y-76586549D01*
X194808660Y-76582128D01*
X194754190Y-76576547D01*
X193803390Y-76576547D01*
X193800144Y-76576884D01*
X193800140Y-76576884D01*
X193704482Y-76586809D01*
X193704478Y-76586810D01*
X193697624Y-76587521D01*
X193691088Y-76589702D01*
X193691086Y-76589702D01*
X193591044Y-76623079D01*
X193529844Y-76643497D01*
X193379442Y-76736569D01*
X193254485Y-76861744D01*
X193250645Y-76867974D01*
X193250644Y-76867975D01*
X193178922Y-76984330D01*
X193161675Y-77012309D01*
X193105993Y-77180186D01*
X193105293Y-77187022D01*
X193105292Y-77187025D01*
X193103510Y-77204422D01*
X193095290Y-77284647D01*
X193095290Y-78460447D01*
X193095627Y-78463693D01*
X193095627Y-78463697D01*
X193103011Y-78534858D01*
X193106264Y-78566213D01*
X193162240Y-78733993D01*
X193255312Y-78884395D01*
X193380487Y-79009352D01*
X193531052Y-79102162D01*
X193616956Y-79130655D01*
X193638811Y-79137904D01*
X193697170Y-79178335D01*
X193712334Y-79204325D01*
X193712503Y-79204232D01*
X193716139Y-79210846D01*
X193716294Y-79211112D01*
X193719238Y-79218548D01*
X193723900Y-79224964D01*
X193723900Y-79224965D01*
X193745226Y-79254318D01*
X193751742Y-79264238D01*
X193774248Y-79302293D01*
X193788569Y-79316614D01*
X193801409Y-79331647D01*
X193813318Y-79348038D01*
X193847395Y-79376229D01*
X193856174Y-79384219D01*
X196494631Y-82022677D01*
X196528657Y-82084989D01*
X196531536Y-82111772D01*
X196531536Y-82772577D01*
X196531873Y-82775823D01*
X196531873Y-82775827D01*
X196540196Y-82856038D01*
X196542510Y-82878343D01*
X196598486Y-83046123D01*
X196691558Y-83196525D01*
X196696740Y-83201698D01*
X196778145Y-83282961D01*
X196812224Y-83345243D01*
X196807221Y-83416063D01*
X196778300Y-83461152D01*
X196719254Y-83520301D01*
X196690731Y-83548874D01*
X196686891Y-83555104D01*
X196686890Y-83555105D01*
X196605775Y-83686698D01*
X196597921Y-83699439D01*
X196583843Y-83741885D01*
X196574645Y-83769615D01*
X196534215Y-83827975D01*
X196468651Y-83855213D01*
X196403803Y-83845056D01*
X196243959Y-83773889D01*
X196243958Y-83773889D01*
X196237928Y-83771204D01*
X196130019Y-83748267D01*
X196057584Y-83732870D01*
X196057579Y-83732870D01*
X196051127Y-83731498D01*
X195860153Y-83731498D01*
X195853701Y-83732870D01*
X195853696Y-83732870D01*
X195781261Y-83748267D01*
X195673352Y-83771204D01*
X195667322Y-83773889D01*
X195667321Y-83773889D01*
X195651141Y-83781093D01*
X195530750Y-83834694D01*
X195460384Y-83844128D01*
X195396087Y-83814022D01*
X195364513Y-83766316D01*
X195363341Y-83766865D01*
X195360237Y-83760239D01*
X195357918Y-83753289D01*
X195264846Y-83602887D01*
X195178259Y-83516451D01*
X195144180Y-83454169D01*
X195149183Y-83383349D01*
X195178104Y-83338260D01*
X195260502Y-83255718D01*
X195265673Y-83250538D01*
X195272401Y-83239623D01*
X195354643Y-83106203D01*
X195354644Y-83106201D01*
X195358483Y-83099973D01*
X195414165Y-82932096D01*
X195424868Y-82827635D01*
X195424868Y-82026835D01*
X195424437Y-82022677D01*
X195414606Y-81927927D01*
X195414605Y-81927923D01*
X195413894Y-81921069D01*
X195392084Y-81855695D01*
X195365113Y-81774855D01*
X195357918Y-81753289D01*
X195264846Y-81602887D01*
X195139671Y-81477930D01*
X195029305Y-81409899D01*
X194995336Y-81388960D01*
X194995334Y-81388959D01*
X194989106Y-81385120D01*
X194905547Y-81357405D01*
X194827757Y-81331603D01*
X194827755Y-81331603D01*
X194821229Y-81329438D01*
X194814393Y-81328738D01*
X194814390Y-81328737D01*
X194771337Y-81324326D01*
X194716768Y-81318735D01*
X193715968Y-81318735D01*
X193712722Y-81319072D01*
X193712718Y-81319072D01*
X193617060Y-81328997D01*
X193617056Y-81328998D01*
X193610202Y-81329709D01*
X193603666Y-81331890D01*
X193603664Y-81331890D01*
X193527187Y-81357405D01*
X193442422Y-81385685D01*
X193292020Y-81478757D01*
X193167063Y-81603932D01*
X193163222Y-81610163D01*
X193158685Y-81615908D01*
X193157355Y-81614858D01*
X193111261Y-81656343D01*
X193056771Y-81668735D01*
X191826725Y-81668735D01*
X191758604Y-81648733D01*
X191731328Y-81624031D01*
X191730841Y-81623245D01*
X191710448Y-81602887D01*
X191610846Y-81503459D01*
X191605666Y-81498288D01*
X191573981Y-81478757D01*
X191461331Y-81409318D01*
X191461329Y-81409317D01*
X191455101Y-81405478D01*
X191339865Y-81367256D01*
X191293752Y-81351961D01*
X191293750Y-81351961D01*
X191287224Y-81349796D01*
X191280388Y-81349096D01*
X191280385Y-81349095D01*
X191237332Y-81344684D01*
X191182763Y-81339093D01*
X189831963Y-81339093D01*
X189828717Y-81339430D01*
X189828713Y-81339430D01*
X189733056Y-81349355D01*
X189733052Y-81349356D01*
X189726198Y-81350067D01*
X189719662Y-81352248D01*
X189719660Y-81352248D01*
X189590487Y-81395344D01*
X189558418Y-81406043D01*
X189408015Y-81499115D01*
X189283058Y-81624290D01*
X189279218Y-81630520D01*
X189279217Y-81630521D01*
X189199259Y-81760237D01*
X189190248Y-81774855D01*
X189185093Y-81790398D01*
X189154914Y-81881384D01*
X189114483Y-81939744D01*
X189048919Y-81966981D01*
X189035321Y-81967717D01*
X185532107Y-81967717D01*
X185463986Y-81947715D01*
X185417493Y-81894059D01*
X185406107Y-81841717D01*
X185406107Y-81178083D01*
X185399352Y-81115901D01*
X185348222Y-80979512D01*
X185260868Y-80862956D01*
X185144312Y-80775602D01*
X185007923Y-80724472D01*
X184945741Y-80717717D01*
X182513978Y-80717717D01*
X182445857Y-80697715D01*
X182424883Y-80680812D01*
X181135405Y-79391334D01*
X181101379Y-79329022D01*
X181098500Y-79302239D01*
X181098500Y-79235871D01*
X182173225Y-79235871D01*
X182180280Y-79245844D01*
X182211286Y-79271768D01*
X182218205Y-79276796D01*
X182442879Y-79417732D01*
X182450414Y-79421773D01*
X182692127Y-79530911D01*
X182700158Y-79533897D01*
X182954439Y-79609219D01*
X182962791Y-79611086D01*
X183224947Y-79651201D01*
X183233481Y-79651917D01*
X183498652Y-79656084D01*
X183507203Y-79655635D01*
X183770490Y-79623774D01*
X183778891Y-79622172D01*
X184035431Y-79554870D01*
X184043533Y-79552143D01*
X184288556Y-79450651D01*
X184296224Y-79446845D01*
X184525205Y-79313039D01*
X184532286Y-79308226D01*
X184612262Y-79245518D01*
X184620732Y-79233659D01*
X184614215Y-79222035D01*
X183410419Y-78018239D01*
X183396475Y-78010625D01*
X183394642Y-78010756D01*
X183388027Y-78015007D01*
X182180517Y-79222517D01*
X182173225Y-79235871D01*
X181098500Y-79235871D01*
X181098500Y-77629421D01*
X181385272Y-77629421D01*
X181400539Y-77894186D01*
X181401612Y-77902687D01*
X181452672Y-78162939D01*
X181454883Y-78171191D01*
X181540791Y-78422111D01*
X181544106Y-78429996D01*
X181663271Y-78666930D01*
X181667627Y-78674296D01*
X181796954Y-78862467D01*
X181807208Y-78870811D01*
X181820949Y-78863665D01*
X183025585Y-77659029D01*
X183031963Y-77647349D01*
X183762015Y-77647349D01*
X183762146Y-77649182D01*
X183766397Y-77655797D01*
X184973337Y-78862737D01*
X184985546Y-78869404D01*
X184997046Y-78860714D01*
X185094438Y-78728130D01*
X185099025Y-78720902D01*
X185225569Y-78487838D01*
X185229137Y-78480044D01*
X185250860Y-78422555D01*
X189096335Y-78422555D01*
X189096672Y-78425801D01*
X189096672Y-78425805D01*
X189103109Y-78487838D01*
X189107309Y-78528320D01*
X189109490Y-78534856D01*
X189109490Y-78534858D01*
X189134747Y-78610562D01*
X189163285Y-78696100D01*
X189256357Y-78846503D01*
X189381532Y-78971460D01*
X189387762Y-78975300D01*
X189387763Y-78975301D01*
X189524925Y-79059849D01*
X189532097Y-79064270D01*
X189598003Y-79086130D01*
X189693446Y-79117787D01*
X189693448Y-79117787D01*
X189699974Y-79119952D01*
X189706814Y-79120653D01*
X189706815Y-79120653D01*
X189723896Y-79122403D01*
X189789624Y-79149244D01*
X189830406Y-79207358D01*
X189837055Y-79247747D01*
X189837055Y-79391081D01*
X189817053Y-79459202D01*
X189804697Y-79475384D01*
X189731515Y-79556661D01*
X189728214Y-79562379D01*
X189651860Y-79694628D01*
X189636028Y-79722049D01*
X189577013Y-79903677D01*
X189557051Y-80093605D01*
X189557741Y-80100170D01*
X189564397Y-80163494D01*
X189577013Y-80283533D01*
X189636028Y-80465161D01*
X189731515Y-80630549D01*
X189735933Y-80635456D01*
X189735934Y-80635457D01*
X189841719Y-80752943D01*
X189859302Y-80772471D01*
X189900804Y-80802624D01*
X190002619Y-80876597D01*
X190013803Y-80884723D01*
X190019831Y-80887407D01*
X190019833Y-80887408D01*
X190158446Y-80949122D01*
X190188267Y-80962399D01*
X190268777Y-80979512D01*
X190368611Y-81000733D01*
X190368616Y-81000733D01*
X190375068Y-81002105D01*
X190566042Y-81002105D01*
X190572494Y-81000733D01*
X190572499Y-81000733D01*
X190672333Y-80979512D01*
X190752843Y-80962399D01*
X190782664Y-80949122D01*
X190921277Y-80887408D01*
X190921279Y-80887407D01*
X190927307Y-80884723D01*
X190938492Y-80876597D01*
X191040306Y-80802624D01*
X191081808Y-80772471D01*
X191099391Y-80752943D01*
X191205176Y-80635457D01*
X191205177Y-80635456D01*
X191209595Y-80630549D01*
X191305082Y-80465161D01*
X191364097Y-80283533D01*
X191376714Y-80163494D01*
X191383369Y-80100170D01*
X191384059Y-80093605D01*
X191364097Y-79903677D01*
X191305082Y-79722049D01*
X191289251Y-79694628D01*
X191212896Y-79562379D01*
X191209595Y-79556661D01*
X191136418Y-79475390D01*
X191105702Y-79411384D01*
X191104055Y-79391081D01*
X191104055Y-79249568D01*
X191124057Y-79181447D01*
X191177713Y-79134954D01*
X191217051Y-79124241D01*
X191222607Y-79123665D01*
X191254142Y-79120393D01*
X191254146Y-79120392D01*
X191261000Y-79119681D01*
X191267536Y-79117500D01*
X191267538Y-79117500D01*
X191399640Y-79073427D01*
X191428780Y-79063705D01*
X191579183Y-78970633D01*
X191704140Y-78845458D01*
X191769753Y-78739015D01*
X191793110Y-78701123D01*
X191793111Y-78701121D01*
X191796950Y-78694893D01*
X191832821Y-78586746D01*
X191850467Y-78533544D01*
X191850467Y-78533542D01*
X191852632Y-78527016D01*
X191863335Y-78422555D01*
X191863335Y-77396755D01*
X191861321Y-77377340D01*
X191853073Y-77297848D01*
X191853072Y-77297844D01*
X191852361Y-77290990D01*
X191849255Y-77281678D01*
X191798703Y-77130158D01*
X191796385Y-77123210D01*
X191703313Y-76972807D01*
X191578138Y-76847850D01*
X191539096Y-76823784D01*
X191433803Y-76758880D01*
X191433801Y-76758879D01*
X191427573Y-76755040D01*
X191267089Y-76701810D01*
X191266224Y-76701523D01*
X191266222Y-76701523D01*
X191259696Y-76699358D01*
X191252860Y-76698658D01*
X191252857Y-76698657D01*
X191209804Y-76694246D01*
X191155235Y-76688655D01*
X189804435Y-76688655D01*
X189801189Y-76688992D01*
X189801185Y-76688992D01*
X189705528Y-76698917D01*
X189705524Y-76698918D01*
X189698670Y-76699629D01*
X189692134Y-76701810D01*
X189692132Y-76701810D01*
X189601939Y-76731901D01*
X189530890Y-76755605D01*
X189380487Y-76848677D01*
X189255530Y-76973852D01*
X189251690Y-76980082D01*
X189251689Y-76980083D01*
X189231825Y-77012309D01*
X189162720Y-77124417D01*
X189160416Y-77131364D01*
X189110516Y-77281809D01*
X189107038Y-77292294D01*
X189096335Y-77396755D01*
X189096335Y-78422555D01*
X185250860Y-78422555D01*
X185322878Y-78231967D01*
X185325355Y-78223761D01*
X185384561Y-77965255D01*
X185385901Y-77956794D01*
X185409638Y-77690833D01*
X185409884Y-77685894D01*
X185410273Y-77648702D01*
X185410130Y-77643736D01*
X185391969Y-77377340D01*
X185390808Y-77368866D01*
X185337026Y-77109161D01*
X185334727Y-77100926D01*
X185246195Y-76850922D01*
X185242798Y-76843071D01*
X185121157Y-76607395D01*
X185116729Y-76600083D01*
X184997638Y-76430634D01*
X184987116Y-76422254D01*
X184973728Y-76429306D01*
X183769629Y-77633405D01*
X183762015Y-77647349D01*
X183031963Y-77647349D01*
X183033199Y-77645085D01*
X183033068Y-77643252D01*
X183028817Y-77636637D01*
X181821421Y-76429241D01*
X181809411Y-76422683D01*
X181797671Y-76431651D01*
X181689542Y-76582128D01*
X181685025Y-76589413D01*
X181560932Y-76823784D01*
X181557446Y-76831612D01*
X181466307Y-77080663D01*
X181463918Y-77088887D01*
X181407419Y-77348012D01*
X181406170Y-77356467D01*
X181385361Y-77620870D01*
X181385272Y-77629421D01*
X181098500Y-77629421D01*
X181098500Y-76566371D01*
X181118502Y-76498250D01*
X181135405Y-76477276D01*
X181553964Y-76058717D01*
X182174191Y-76058717D01*
X182180587Y-76069987D01*
X183384795Y-77274195D01*
X183398739Y-77281809D01*
X183400572Y-77281678D01*
X183407187Y-77277427D01*
X184614211Y-76070403D01*
X184621402Y-76057234D01*
X184614080Y-76046997D01*
X184566840Y-76008332D01*
X184559868Y-76003377D01*
X184333729Y-75864799D01*
X184326159Y-75860841D01*
X184083311Y-75754239D01*
X184075251Y-75751337D01*
X183820199Y-75678684D01*
X183811821Y-75676902D01*
X183549263Y-75639535D01*
X183540718Y-75638908D01*
X183275515Y-75637519D01*
X183266981Y-75638056D01*
X183004040Y-75672673D01*
X182995642Y-75674366D01*
X182739845Y-75744344D01*
X182731750Y-75747163D01*
X182487806Y-75851214D01*
X182480184Y-75855098D01*
X182252620Y-75991292D01*
X182245588Y-75996179D01*
X182182660Y-76046594D01*
X182174191Y-76058717D01*
X181553964Y-76058717D01*
X182168430Y-75444251D01*
X189096835Y-75444251D01*
X189097172Y-75450766D01*
X189107091Y-75546358D01*
X189109985Y-75559757D01*
X189161423Y-75713938D01*
X189167597Y-75727117D01*
X189252898Y-75864962D01*
X189261934Y-75876363D01*
X189376665Y-75990894D01*
X189388076Y-75999906D01*
X189526080Y-76084973D01*
X189539258Y-76091117D01*
X189693551Y-76142294D01*
X189706916Y-76145160D01*
X189801274Y-76154827D01*
X189807690Y-76155155D01*
X190207720Y-76155155D01*
X190222959Y-76150680D01*
X190224164Y-76149290D01*
X190225835Y-76141607D01*
X190225835Y-76137040D01*
X190733835Y-76137040D01*
X190738310Y-76152279D01*
X190739700Y-76153484D01*
X190747383Y-76155155D01*
X191151931Y-76155155D01*
X191158446Y-76154818D01*
X191254038Y-76144899D01*
X191267437Y-76142005D01*
X191421618Y-76090567D01*
X191434797Y-76084393D01*
X191572642Y-75999092D01*
X191584043Y-75990056D01*
X191698574Y-75875325D01*
X191707586Y-75863914D01*
X191792653Y-75725910D01*
X191798797Y-75712732D01*
X191842112Y-75582142D01*
X193095791Y-75582142D01*
X193096128Y-75588661D01*
X193106047Y-75684253D01*
X193108939Y-75697647D01*
X193160378Y-75851831D01*
X193166551Y-75865009D01*
X193251853Y-76002854D01*
X193260889Y-76014255D01*
X193375619Y-76128786D01*
X193387030Y-76137798D01*
X193525033Y-76222863D01*
X193538214Y-76229010D01*
X193692500Y-76280185D01*
X193705876Y-76283052D01*
X193800228Y-76292719D01*
X193806644Y-76293047D01*
X194006675Y-76293047D01*
X194021914Y-76288572D01*
X194023119Y-76287182D01*
X194024790Y-76279499D01*
X194024790Y-76274931D01*
X194532790Y-76274931D01*
X194537265Y-76290170D01*
X194538655Y-76291375D01*
X194546338Y-76293046D01*
X194750885Y-76293046D01*
X194757404Y-76292709D01*
X194852996Y-76282790D01*
X194866390Y-76279898D01*
X195020574Y-76228459D01*
X195033752Y-76222286D01*
X195171597Y-76136984D01*
X195182998Y-76127948D01*
X195297529Y-76013218D01*
X195306541Y-76001807D01*
X195391606Y-75863804D01*
X195397753Y-75850623D01*
X195448928Y-75696337D01*
X195451795Y-75682961D01*
X195461462Y-75588609D01*
X195461790Y-75582193D01*
X195461790Y-75269662D01*
X195457315Y-75254423D01*
X195455925Y-75253218D01*
X195448242Y-75251547D01*
X194550905Y-75251547D01*
X194535666Y-75256022D01*
X194534461Y-75257412D01*
X194532790Y-75265095D01*
X194532790Y-76274931D01*
X194024790Y-76274931D01*
X194024790Y-75269662D01*
X194020315Y-75254423D01*
X194018925Y-75253218D01*
X194011242Y-75251547D01*
X193113906Y-75251547D01*
X193098667Y-75256022D01*
X193097462Y-75257412D01*
X193095791Y-75265095D01*
X193095791Y-75582142D01*
X191842112Y-75582142D01*
X191849974Y-75558439D01*
X191852840Y-75545074D01*
X191862507Y-75450716D01*
X191862835Y-75444300D01*
X191862835Y-75206770D01*
X191858360Y-75191531D01*
X191856970Y-75190326D01*
X191849287Y-75188655D01*
X190751950Y-75188655D01*
X190736711Y-75193130D01*
X190735506Y-75194520D01*
X190733835Y-75202203D01*
X190733835Y-76137040D01*
X190225835Y-76137040D01*
X190225835Y-75206770D01*
X190221360Y-75191531D01*
X190219970Y-75190326D01*
X190212287Y-75188655D01*
X189114950Y-75188655D01*
X189099711Y-75193130D01*
X189098506Y-75194520D01*
X189096835Y-75202203D01*
X189096835Y-75444251D01*
X182168430Y-75444251D01*
X183352835Y-74259846D01*
X183415147Y-74225820D01*
X183441930Y-74222941D01*
X188977639Y-74222941D01*
X189045760Y-74242943D01*
G37*
%TD.AperFunction*%
%TD*%
M02*
